HIERARCHY
ROOT Bip001_Pelvis
{
  OFFSET 3.67809 93.2994 -2.41599
  CHANNELS 6 Xposition Yposition Zposition Zrotation Xrotation Yrotation
  JOINT Bip001_Spine
  {
    OFFSET 1.44608e-005 10.4157 -0.0118244
    CHANNELS 3 Zrotation Xrotation Yrotation
    JOINT Bip001_L_Thigh
    {
      OFFSET 11.2582 -10.4157 0.0118432
      CHANNELS 3 Zrotation Xrotation Yrotation
      JOINT Bip001_L_Calf
      {
        OFFSET -0.720717 -44.8687 0.366937
        CHANNELS 3 Zrotation Xrotation Yrotation
        JOINT Bip001_L_Foot
        {
          OFFSET -0.664439 -41.3745 -3.62995
          CHANNELS 3 Zrotation Xrotation Yrotation
          JOINT Bip001_L_Toe0
          {
            OFFSET 0.0541048 -10.4146 13.4033
            CHANNELS 3 Zrotation Xrotation Yrotation
            End Site
            {
              OFFSET -1.04503e-005 0 7.70137
            }
          }
        }
      }
    }
    JOINT Bip001_R_Thigh
    {
      OFFSET -11.2582 -10.4156 0.0118122
      CHANNELS 3 Zrotation Xrotation Yrotation
      JOINT Bip001_R_Calf
      {
        OFFSET 0.72059 -44.8687 0.36676
        CHANNELS 3 Zrotation Xrotation Yrotation
        JOINT Bip001_R_Foot
        {
          OFFSET 0.664321 -41.3745 -3.62979
          CHANNELS 3 Zrotation Xrotation Yrotation
          JOINT Bip001_R_Toe0
          {
            OFFSET -0.05417 -10.4146 13.4033
            CHANNELS 3 Zrotation Xrotation Yrotation
            End Site
            {
              OFFSET -1.04873e-005 0 7.70137
            }
          }
        }
      }
    }
    JOINT Bip001_Spine1
    {
      OFFSET 1.90638e-005 14.8539 1.10727
      CHANNELS 3 Zrotation Xrotation Yrotation
      JOINT Bip001_Spine2
      {
        OFFSET 2.28934e-005 14.7848 -1.7233
        CHANNELS 3 Zrotation Xrotation Yrotation
        JOINT Bip001_Neck
        {
          OFFSET 2.24514e-005 15.6905 -0.498826
          CHANNELS 3 Zrotation Xrotation Yrotation
          JOINT Bip001_L_Clavicle
          {
            OFFSET 6.17691 -0.000591152 0.00852867
            CHANNELS 3 Zrotation Xrotation Yrotation
            JOINT Bip001_L_UpperArm
            {
              OFFSET 11.773 -0.0611878 0.00197697
              CHANNELS 3 Zrotation Xrotation Yrotation
              JOINT Bip001_L_Forearm
              {
                OFFSET 26.4515 0.0817568 -2.19579
                CHANNELS 3 Zrotation Xrotation Yrotation
                JOINT Bip001_L_Hand
                {
                  OFFSET 32.8678 0.156744 1.67112
                  CHANNELS 3 Zrotation Xrotation Yrotation
                  JOINT Bip001_L_Finger0
                  {
                    OFFSET 6.16268 -2.25226 6.01673
                    CHANNELS 3 Zrotation Xrotation Yrotation
                    End Site
                    {
                      OFFSET 4.30499 -1.46663 0.618147
                    }
                  }
                  JOINT Bip001_L_Finger1
                  {
                    OFFSET 11.2958 -0.718375 -0.201963
                    CHANNELS 3 Zrotation Xrotation Yrotation
                    End Site
                    {
                      OFFSET 6.31953 -0.405163 -0.0802301
                    }
                  }
                }
              }
            }
          }
          JOINT Bip001_R_Clavicle
          {
            OFFSET -6.17691 -0.000574027 0.00851165
            CHANNELS 3 Zrotation Xrotation Yrotation
            JOINT Bip001_R_UpperArm
            {
              OFFSET -11.773 -0.0611516 0.00194365
              CHANNELS 3 Zrotation Xrotation Yrotation
              JOINT Bip001_R_Forearm
              {
                OFFSET -26.4514 0.0822335 -2.19736
                CHANNELS 3 Zrotation Xrotation Yrotation
                JOINT Bip001_R_Hand
                {
                  OFFSET -32.8679 0.156816 1.67143
                  CHANNELS 3 Zrotation Xrotation Yrotation
                  JOINT Bip001_R_Finger0
                  {
                    OFFSET -6.16275 -2.25224 6.01668
                    CHANNELS 3 Zrotation Xrotation Yrotation
                    End Site
                    {
                      OFFSET -4.30502 -1.46661 0.618132
                    }
                  }
                  JOINT Bip001_R_Finger1
                  {
                    OFFSET -11.2958 -0.718342 -0.201993
                    CHANNELS 3 Zrotation Xrotation Yrotation
                    End Site
                    {
                      OFFSET -6.31957 -0.405145 -0.0802473
                    }
                  }
                }
              }
            }
          }
          JOINT Bip001_Head
          {
            OFFSET 1.11782e-005 11.4912 2.09908
            CHANNELS 3 Zrotation Xrotation Yrotation
            End Site
            {
              OFFSET 2.95144e-005 21.2823 -2.83069e-005
            }
          }
        }
      }
    }
  }
}
MOTION
Frames:	13
Frame Time:	0.0333333
3.76145 93.2926 -2.46626 -3.05636 -13.7415 -13.1957 -0.865008 5.47794 -1.24932 -5.73393 11.3719 6.15716 0.234905 6.8126 6.91743 -7.4063 6.86489 -12.0215 2.95526e-006 -1.14681e-006 -1.49508e-006 -0.952579 -8.35122 0.418692 0.27889 29.04 7.38262 -0.901854 -7.35624 7.52129 -2.4848e-017 -7.9514e-016 -0 -0.775191 10.9047 3.42429 -0.767588 10.9038 3.41393 0.610882 8.92206 -9.76507 1.93005 -8.95686 16.5032 -14.5557 51.9722 -88.3979 -3.14814 1.05328 -33.3749 -24.2327 -6.15177 -17.7462 7.95139e-016 -7.95139e-016 4.57205e-015 7.95139e-016 0 3.57812e-015 0.958681 -9.90902 -6.0531 6.83881 55.7905 77.084 5.52782 5.0211 80.8948 -0.309649 -1.67239 25.4986 -3.18055e-015 -1.59028e-015 -0 -3.18055e-015 -3.18056e-015 -0 0.425588 12.5104 -10.2917 
3.7632 93.2926 -2.46688 -3.05548 -13.7415 -13.1935 -0.865296 5.47826 -1.24931 -5.73445 11.3711 6.15678 0.234562 6.81256 6.92032 -7.40607 6.86541 -12.0225 2.95526e-006 -1.14681e-006 -1.49508e-006 -0.952606 -8.35144 0.41868 0.279011 29.0422 7.38277 -0.902793 -7.3565 7.52114 -2.4848e-017 7.9514e-016 1.98784e-016 -0.775258 10.9047 3.42468 -0.767302 10.9038 3.41399 0.609189 8.91277 -9.76541 1.93903 -8.94569 16.5188 -14.6195 51.9698 -88.3376 -3.14643 1.05428 -33.4087 -24.25 -6.12572 -17.7318 -1.93108e-032 1.59028e-015 6.95746e-016 1.65522e-031 1.59028e-015 -5.96354e-015 0.959701 -9.89966 -6.05464 6.86034 55.804 77.0626 5.53078 5.01605 80.8433 -0.363884 -1.56242 25.484 0 0 -0 3.18055e-015 1.59028e-015 -0 0.426503 12.5129 -10.2919 
3.76658 93.2924 -2.4683 -3.05229 -13.7417 -13.1811 -0.865564 5.47845 -1.24933 -5.73494 11.3701 6.15666 0.234258 6.81252 6.92288 -7.40527 6.86702 -12.0262 2.95526e-006 -1.14681e-006 -1.49508e-006 -0.952735 -8.35204 0.418914 0.277951 29.052 7.38348 -0.901938 -7.36607 7.51996 2.4848e-017 0 -0 -0.775257 10.9043 3.425 -0.76695 10.9035 3.41396 0.607419 8.88944 -9.76729 1.96192 -8.91762 16.5605 -14.743 51.962 -88.2143 -3.14675 1.05584 -33.4754 -24.2873 -6.07287 -17.6997 5.51738e-033 3.97569e-016 -7.95139e-016 2.82766e-032 3.97569e-016 -4.07509e-015 0.961356 -9.8761 -6.0575 6.89356 55.8339 77.0221 5.53102 5.00664 80.7417 -0.477978 -1.34167 25.4482 6.36111e-015 -3.18055e-015 -0 9.54166e-015 -3.18056e-015 7.95139e-016 0.428295 12.5237 -10.2934 
3.76918 93.2923 -2.46996 -3.04954 -13.7414 -13.17 -0.865811 5.47848 -1.24939 -5.73539 11.369 6.15683 0.233993 6.81249 6.92511 -7.40301 6.8695 -12.0401 2.95526e-006 -1.14681e-006 -1.49508e-006 -0.95267 -8.35298 0.421411 0.277326 29.0585 7.38395 -0.90068 -7.3726 7.51757 2.4848e-017 0 -1.98784e-016 -0.775191 10.9035 3.42526 -0.766536 10.9028 3.41385 0.607069 8.86732 -9.77412 1.97369 -8.89269 16.5967 -14.8375 51.957 -88.1194 -3.14806 1.05742 -33.5299 -24.3257 -6.02883 -17.6746 7.95139e-016 -1.19271e-015 5.86415e-015 7.95139e-016 -7.95139e-016 9.39258e-015 0.960409 -9.85397 -6.06133 6.90626 55.8557 77.0008 5.53004 4.99904 80.6582 -0.578526 -1.15262 25.4102 3.18055e-015 3.18055e-015 1.59028e-015 3.18055e-015 0 1.59028e-015 0.428705 12.5374 -10.2963 
3.77128 93.2922 -2.47196 -3.04705 -13.7408 -13.1595 -0.866034 5.47836 -1.24949 -5.73578 11.3678 6.15731 0.233764 6.81246 6.92705 -7.39829 6.87711 -12.0649 2.95526e-006 -1.14681e-006 -1.49508e-006 -0.952608 -8.35472 0.424764 0.277155 29.0616 7.38417 -0.898924 -7.37542 7.50872 1.2424e-017 7.9514e-016 -1.98784e-016 -0.77493 10.9024 3.42475 -0.766064 10.9017 3.41365 0.606925 8.8452 -9.78093 1.97667 -8.86975 16.6321 -14.9151 51.951 -88.0406 -3.15129 1.05955 -33.5787 -24.3704 -5.98788 -17.6526 -7.95139e-016 3.97569e-016 2.03754e-015 -3.72423e-032 7.95139e-016 2.68359e-015 0.957711 -9.83195 -6.06717 6.91028 55.8711 76.9888 5.52916 4.99212 80.5822 -0.673266 -0.973876 25.3666 -3.18055e-015 3.18055e-015 -7.95139e-016 -3.18055e-015 3.18056e-015 -0 0.428553 12.5519 -10.3036 
3.77343 93.2919 -2.4742 -3.04492 -13.7399 -13.1501 -0.866234 5.47807 -1.24962 -5.7361 11.3666 6.15813 0.233569 6.81244 6.92869 -7.39355 6.88386 -12.0914 2.95526e-006 -1.14681e-006 -1.49508e-006 -0.952407 -8.35901 0.429838 0.277082 29.0636 7.38431 -0.898471 -7.37554 7.49615 0 0 -0 -0.77449 10.901 3.42356 -0.765537 10.9003 3.41336 0.607459 8.82281 -9.78836 1.97649 -8.84757 16.6685 -14.9846 51.9423 -87.9703 -3.15508 1.06218 -33.6247 -24.4068 -5.95147 -17.6343 -7.24156e-033 3.97569e-016 1.04362e-015 -7.95139e-016 7.95139e-016 -7.45443e-016 0.954891 -9.81 -6.0737 6.90848 55.8858 76.9799 5.5284 4.98573 80.5116 -0.764974 -0.798793 25.3202 -3.18055e-015 1.59028e-015 1.59028e-015 -3.18055e-015 1.59028e-015 1.59028e-015 0.42817 12.5653 -10.3107 
3.77588 93.2914 -2.47669 -3.04366 -13.7385 -13.1424 -0.866408 5.47758 -1.24978 -5.73623 11.3639 6.15972 0.233408 6.81242 6.93005 -7.38853 6.89146 -12.1185 2.95526e-006 -1.14681e-006 -1.49508e-006 -0.951568 -8.36365 0.440133 0.277054 29.0648 7.3844 -0.899611 -7.37099 7.47992 -1.2424e-017 7.9514e-016 -0 -0.773958 10.8991 3.42213 -0.764959 10.8986 3.41299 0.609961 8.80177 -9.79614 1.97452 -8.82822 16.7045 -15.0482 51.9326 -87.908 -3.15846 1.06476 -33.6669 -24.4298 -5.9223 -17.6232 -7.95139e-016 1.59028e-015 -4.96962e-017 5.37945e-032 1.19271e-015 -2.5842e-015 0.951601 -9.78937 -6.08128 6.90157 55.9014 76.972 5.52766 4.98005 80.4489 -0.851461 -0.629559 25.2715 -3.18055e-015 0 -0 -3.18055e-015 3.18056e-015 -7.95139e-016 0.427279 12.5719 -10.3174 
3.77836 93.2905 -2.47932 -3.04432 -13.7342 -13.1357 -0.866556 5.4769 -1.24998 -5.73635 11.3595 6.16324 0.233277 6.8124 6.93115 -7.38371 6.89892 -12.1443 2.95526e-006 -1.14681e-006 -1.49508e-006 -0.95168 -8.36863 0.444705 0.277019 29.0656 7.38446 -0.901629 -7.3641 7.46275 -2.4848e-017 -1.59028e-015 -0 -0.773231 10.8951 3.4205 -0.764256 10.8952 3.41252 0.61347 8.7818 -9.80433 1.97153 -8.81076 16.7409 -15.0994 51.9179 -87.8586 -3.1617 1.06703 -33.7062 -24.4388 -5.89815 -17.6191 -1.59028e-015 -3.97569e-016 6.95746e-016 -2.38542e-015 -3.97569e-016 1.59028e-015 0.949288 -9.77 -6.0896 6.8909 55.9164 76.9646 5.52704 4.97496 80.3926 -0.934052 -0.466308 25.2216 -0 -6.36111e-015 -0 -8.82782e-032 -6.36111e-015 -7.95139e-016 0.426195 12.5755 -10.3238 
3.78056 93.2891 -2.48186 -3.04497 -13.7291 -13.1277 -0.866676 5.47601 -1.2502 -5.73589 11.3544 6.16685 0.233175 6.81239 6.93201 -7.38088 6.9037 -12.1586 2.95526e-006 -1.14681e-006 -1.49508e-006 -0.952231 -8.37279 0.447121 0.276927 29.0664 7.38451 -0.903155 -7.36068 7.44895 2.4848e-017 -7.9514e-016 -0 -0.772402 10.8903 3.41872 -0.763433 10.8903 3.41195 0.619576 8.76559 -9.81341 1.96675 -8.79746 16.7773 -15.1305 51.8983 -87.826 -3.16481 1.06927 -33.7441 -24.4255 -5.87884 -17.618 -7.95139e-016 -3.97569e-016 2.08724e-015 -7.95139e-016 -3.97569e-016 2.03754e-015 0.947501 -9.75542 -6.09799 6.87637 55.9292 76.9575 5.52641 4.97049 80.3431 -1.01182 -0.312714 25.1756 -1.32417e-031 -3.18055e-015 -2.38542e-015 3.18055e-015 -3.18056e-015 -1.59028e-015 0.425014 12.577 -10.3301 
3.78247 93.2873 -2.48442 -3.04396 -13.7218 -13.1187 -0.86678 5.47433 -1.25046 -5.73471 11.348 6.16998 0.233102 6.81238 6.93263 -7.37963 6.90695 -12.163 2.95526e-006 -1.14681e-006 -1.49508e-006 -0.953196 -8.37515 0.447566 0.27673 29.0673 7.38458 -0.904301 -7.35802 7.43996 -1.2424e-017 7.9514e-016 1.98784e-016 -0.771517 10.8851 3.41686 -0.762574 10.8851 3.41129 0.626268 8.75146 -9.82267 1.95891 -8.78718 16.8134 -15.1565 51.8749 -87.7981 -3.16777 1.07149 -33.7801 -24.3854 -5.86644 -17.6187 1.59028e-015 -7.95139e-016 -2.6339e-015 1.59028e-015 -3.97569e-016 -5.96354e-016 0.945928 -9.74319 -6.10636 6.85902 55.9414 76.95 5.52601 4.96665 80.3007 -1.08351 -0.167314 25.1324 -6.36111e-015 3.18055e-015 -1.59028e-015 -3.18055e-015 3.18056e-015 -1.59028e-015 0.423648 12.5763 -10.3364 
3.78441 93.2852 -2.48653 -3.0426 -13.7181 -13.1095 -0.866868 5.47173 -1.25075 -5.73353 11.3448 6.17282 0.233054 6.81238 6.93303 -7.37872 6.90978 -12.1654 2.95526e-006 -1.14681e-006 -1.49508e-006 -0.954534 -8.37715 0.44623 0.276319 29.0692 7.38472 -0.905022 -7.35602 7.43581 -2.4848e-017 7.9514e-016 1.98784e-016 -0.770599 10.8802 3.41486 -0.761717 10.8802 3.41055 0.632752 8.74103 -9.83168 1.95066 -8.78077 16.8487 -15.1731 51.8491 -87.7768 -3.17068 1.07354 -33.8152 -24.3395 -5.84848 -17.6191 7.95139e-016 3.97569e-016 9.93923e-017 7.95139e-016 -3.97569e-016 5.96354e-016 0.944497 -9.73406 -6.11421 6.83973 55.9523 76.9428 5.52548 4.96326 80.2631 -1.14787 -0.035632 25.0942 -3.18055e-015 -3.18055e-015 -1.59028e-015 -3.18055e-015 -3.18056e-015 -0 0.42223 12.5733 -10.3428 
3.7865 93.2827 -2.48779 -3.04109 -13.7157 -13.1003 -0.866925 5.4689 -1.25107 -5.7324 11.3424 6.17574 0.23303 6.81237 6.93323 -7.37791 6.91244 -12.1674 2.95526e-006 -1.14681e-006 -1.49508e-006 -0.956214 -8.37881 0.443303 0.275636 29.0724 7.38494 -0.905678 -7.35467 7.43335 -1.2424e-017 7.9514e-016 -1.98784e-016 -0.769665 10.8761 3.41265 -0.760893 10.876 3.40974 0.636665 8.73398 -9.84013 1.93902 -8.77658 16.8819 -15.1641 51.8209 -87.7732 -3.17387 1.07541 -33.8502 -24.2949 -5.82014 -17.6215 -7.95139e-016 1.19271e-015 -9.83984e-015 -1.59028e-015 7.95139e-016 -1.08338e-014 0.943116 -9.72873 -6.1212 6.82005 55.9628 76.9357 5.52518 4.96026 80.2299 -1.20486 0.0814875 25.0625 3.18055e-015 3.18055e-015 7.95139e-016 3.18055e-015 6.36111e-015 7.95139e-016 0.42055 12.5652 -10.3497 
3.78866 93.28 -2.48864 -3.03937 -13.714 -13.0908 -0.86691 5.46762 -1.25142 -5.73158 11.3406 6.17914 0.233028 6.81237 6.93325 -7.37706 6.91493 -12.1699 2.95526e-006 -1.14681e-006 -1.49508e-006 -0.958782 -8.38014 0.43501 0.274867 29.0755 7.38517 -0.906296 -7.35388 7.43204 -1.2424e-017 0 -1.98784e-016 -0.768754 10.8726 3.41044 -0.760099 10.8725 3.40886 0.641238 8.7278 -9.84884 1.92369 -8.77307 16.9141 -15.146 51.791 -87.7763 -3.17643 1.07723 -33.8841 -24.2502 -5.78273 -17.6277 1.59028e-015 7.95139e-016 4.96962e-017 7.95139e-016 7.95139e-016 2.18663e-015 0.941994 -9.7247 -6.12721 6.80003 55.9733 76.9284 5.52505 4.95763 80.2009 -1.25382 0.182827 25.0361 -3.18055e-015 0 -0 -3.18055e-015 -3.18056e-015 -0 0.417607 12.5533 -10.3559 
